<svg xmlns="http://www.w3.org/2000/svg" xmlns:xlink="http://www.w3.org/1999/xlink" width="325" zoomAndPan="magnify" viewBox="0 0 243.75 93.749996" height="125" preserveAspectRatio="xMidYMid meet" version="1.0"><defs><g/><clipPath id="6d88c8ec41"><path d="M 3.511719 5 L 38 5 L 38 67 L 3.511719 67 Z M 3.511719 5 " clip-rule="nonzero"/></clipPath><clipPath id="dbe928c8ba"><path d="M 27 0.886719 L 43 0.886719 L 43 17 L 27 17 Z M 27 0.886719 " clip-rule="nonzero"/></clipPath><clipPath id="f9a60dcf68"><path d="M 13 73 L 82 73 L 82 92.683594 L 13 92.683594 Z M 13 73 " clip-rule="nonzero"/></clipPath><clipPath id="6cebd87599"><path d="M 81 51 L 96.679688 51 L 96.679688 67 L 81 67 Z M 81 51 " clip-rule="nonzero"/></clipPath></defs><g clip-path="url(#6d88c8ec41)"><path fill="#548b6d" d="M 7.910156 66.496094 C 7.910156 66.496094 7.789062 66.230469 7.550781 65.730469 C 7.3125 65.226562 6.996094 64.496094 6.613281 63.519531 C 5.566406 60.84375 4.796875 58.085938 4.308594 55.253906 C 3.980469 53.355469 3.777344 51.445312 3.710938 49.519531 C 3.65625 47.371094 3.746094 45.222656 3.984375 43.085938 C 4.046875 42.523438 4.097656 41.953125 4.175781 41.386719 C 4.25 40.824219 4.390625 40.265625 4.5 39.691406 C 4.613281 39.121094 4.726562 38.550781 4.835938 37.972656 C 4.945312 37.398438 5.15625 36.847656 5.3125 36.277344 C 5.46875 35.710938 5.636719 35.136719 5.800781 34.582031 C 5.960938 34.027344 6.222656 33.457031 6.414062 32.886719 L 7.058594 31.191406 C 7.265625 30.621094 7.566406 30.101562 7.816406 29.546875 L 8.601562 27.917969 C 8.851562 27.363281 9.199219 26.867188 9.492188 26.339844 C 10.074219 25.289062 10.714844 24.277344 11.417969 23.300781 C 12.070312 22.316406 12.777344 21.371094 13.539062 20.464844 C 14.265625 19.550781 15.039062 18.679688 15.863281 17.847656 C 17.390625 16.269531 19.023438 14.808594 20.757812 13.460938 L 23.25 11.671875 C 24.097656 11.136719 24.910156 10.660156 25.699219 10.183594 C 26.453125 9.726562 27.230469 9.3125 28.03125 8.945312 C 28.785156 8.585938 29.492188 8.207031 30.1875 7.917969 C 31.585938 7.386719 32.792969 6.871094 33.820312 6.542969 L 37.082031 5.59375 L 37.929688 9.492188 L 34.921875 10.214844 C 33.96875 10.460938 32.847656 10.882812 31.53125 11.292969 C 30.878906 11.523438 30.21875 11.839844 29.503906 12.140625 C 28.746094 12.4375 28.011719 12.78125 27.292969 13.167969 C 26.546875 13.570312 25.75 13.96875 24.953125 14.441406 L 22.5625 15.976562 C 20.871094 17.148438 19.277344 18.441406 17.773438 19.847656 C 16.964844 20.578125 16.199219 21.351562 15.480469 22.171875 C 14.714844 22.976562 13.996094 23.824219 13.324219 24.714844 C 12.613281 25.597656 11.953125 26.515625 11.34375 27.476562 C 11.039062 27.957031 10.683594 28.417969 10.421875 28.925781 L 9.574219 30.4375 C 9.308594 30.953125 8.992188 31.441406 8.765625 31.96875 L 8.09375 33.539062 C 7.871094 34.070312 7.605469 34.582031 7.417969 35.125 L 6.859375 36.753906 C 6.679688 37.292969 6.476562 37.824219 6.320312 38.367188 C 6.164062 38.910156 6.042969 39.464844 5.894531 40 C 5.75 40.539062 5.625 41.085938 5.472656 41.621094 C 5.320312 42.15625 5.296875 42.703125 5.210938 43.238281 C 4.867188 45.3125 4.664062 47.40625 4.605469 49.507812 C 4.582031 51.402344 4.6875 53.289062 4.925781 55.164062 C 5.261719 57.992188 5.878906 60.761719 6.773438 63.464844 C 7.101562 64.441406 7.390625 65.199219 7.59375 65.710938 Z M 7.910156 66.496094 " fill-opacity="1" fill-rule="nonzero"/></g><g clip-path="url(#dbe928c8ba)"><path fill="#548b6d" d="M 30.390625 16.113281 L 36.28125 7.804688 L 27.96875 1.914062 L 34 0.886719 L 42.304688 6.777344 L 36.414062 15.085938 Z M 30.390625 16.113281 " fill-opacity="1" fill-rule="nonzero"/></g><g clip-path="url(#f9a60dcf68)"><path fill="#548b6d" d="M 81.132812 73.847656 L 80.632812 74.539062 C 80.296875 74.964844 79.863281 75.667969 79.1875 76.457031 L 78.097656 77.785156 L 76.730469 79.277344 C 75.609375 80.449219 74.425781 81.554688 73.179688 82.597656 C 72.511719 83.191406 71.742188 83.722656 70.988281 84.320312 C 70.234375 84.917969 69.375 85.4375 68.515625 86.015625 C 67.65625 86.59375 66.742188 87.113281 65.773438 87.589844 L 64.316406 88.34375 L 62.792969 89.023438 C 61.777344 89.507812 60.671875 89.847656 59.601562 90.292969 C 58.492188 90.617188 57.382812 91.03125 56.210938 91.28125 C 53.878906 91.875 51.511719 92.269531 49.117188 92.472656 L 47.304688 92.574219 L 46.851562 92.601562 L 45.507812 92.601562 C 44.347656 92.625 43.117188 92.53125 41.90625 92.46875 C 39.566406 92.257812 37.253906 91.875 34.96875 91.328125 C 32.832031 90.78125 30.742188 90.089844 28.703125 89.253906 C 26.875 88.484375 25.105469 87.601562 23.398438 86.597656 C 21.945312 85.75 20.546875 84.820312 19.203125 83.808594 C 18.007812 82.902344 16.988281 82.070312 16.199219 81.339844 C 15.414062 80.605469 14.789062 80.019531 14.378906 79.613281 L 13.75 78.984375 L 16.71875 76.300781 L 17.261719 76.898438 C 17.617188 77.289062 18.109375 77.878906 18.839844 78.558594 C 19.566406 79.242188 20.414062 80.074219 21.46875 80.96875 C 22.652344 81.964844 23.890625 82.886719 25.1875 83.734375 C 26.71875 84.746094 28.316406 85.65625 29.96875 86.457031 C 31.828125 87.324219 33.734375 88.058594 35.695312 88.664062 C 37.816406 89.292969 39.972656 89.765625 42.160156 90.082031 C 43.273438 90.195312 44.371094 90.351562 45.554688 90.386719 L 46.4375 90.433594 L 49.003906 90.433594 C 51.316406 90.367188 53.605469 90.109375 55.871094 89.660156 C 57.003906 89.484375 58.085938 89.140625 59.175781 88.886719 C 60.234375 88.527344 61.316406 88.257812 62.324219 87.835938 L 63.839844 87.253906 L 65.292969 86.59375 C 66.265625 86.167969 67.152344 85.65625 68.046875 85.199219 C 68.941406 84.746094 69.742188 84.191406 70.550781 83.6875 C 71.363281 83.183594 72.109375 82.65625 72.792969 82.109375 C 74.078125 81.144531 75.304688 80.113281 76.476562 79.015625 L 77.910156 77.609375 L 79.058594 76.339844 C 79.769531 75.59375 80.242188 74.921875 80.601562 74.503906 Z M 81.132812 73.847656 " fill-opacity="1" fill-rule="nonzero"/></g><path fill="#548b6d" d="M 26.171875 79.605469 L 16.035156 78.582031 L 15.023438 88.71875 L 11.152344 83.984375 L 12.167969 73.851562 L 22.296875 74.867188 Z M 26.171875 79.605469 " fill-opacity="1" fill-rule="nonzero"/><path fill="#548b6d" d="M 50.898438 6.769531 L 54.125 7.15625 C 54.378906 7.1875 54.648438 7.214844 54.933594 7.257812 L 55.8125 7.445312 L 57.792969 7.871094 C 58.144531 7.953125 58.511719 8.015625 58.886719 8.121094 L 60.015625 8.476562 L 62.457031 9.253906 L 65.027344 10.335938 C 65.449219 10.53125 65.933594 10.6875 66.367188 10.929688 L 67.707031 11.644531 C 69.617188 12.652344 71.445312 13.792969 73.183594 15.070312 L 75.863281 17.191406 L 78.410156 19.617188 C 79.257812 20.464844 79.992188 21.394531 80.792969 22.289062 C 81.195312 22.738281 81.5625 23.210938 81.902344 23.710938 L 82.972656 25.175781 L 83.507812 25.910156 C 83.675781 26.160156 83.820312 26.425781 83.976562 26.683594 L 84.910156 28.238281 C 85.53125 29.269531 86.089844 30.332031 86.578125 31.429688 C 86.832031 31.972656 87.101562 32.503906 87.34375 33.046875 C 87.585938 33.589844 87.769531 34.15625 87.957031 34.703125 C 88.394531 35.78125 88.761719 36.878906 89.054688 38.003906 C 89.203125 38.558594 89.351562 39.105469 89.476562 39.648438 C 89.636719 40.183594 89.761719 40.722656 89.855469 41.273438 C 90.039062 42.363281 90.21875 43.429688 90.394531 44.460938 C 90.53125 45.503906 90.5625 46.53125 90.648438 47.519531 C 90.683594 48.011719 90.71875 48.5 90.753906 48.980469 C 90.789062 49.457031 90.773438 49.890625 90.753906 50.378906 C 90.738281 53.367188 90.425781 56.324219 89.8125 59.25 C 89.589844 60.304688 89.386719 61.128906 89.226562 61.691406 C 89.066406 62.253906 88.988281 62.539062 88.988281 62.539062 L 85.171875 61.324219 L 85.429688 60.558594 C 85.59375 60.054688 85.828125 59.316406 86.085938 58.363281 C 86.777344 55.710938 87.203125 53.015625 87.355469 50.28125 C 87.382812 49.886719 87.398438 49.398438 87.410156 48.96875 C 87.425781 48.542969 87.410156 48.074219 87.382812 47.617188 C 87.351562 46.703125 87.382812 45.742188 87.296875 44.769531 C 87.210938 43.792969 87.066406 42.796875 86.953125 41.773438 C 86.898438 41.257812 86.804688 40.746094 86.679688 40.238281 C 86.570312 39.726562 86.460938 39.203125 86.347656 38.683594 C 86.136719 37.613281 85.855469 36.5625 85.5 35.53125 L 85.058594 33.964844 C 84.855469 33.441406 84.632812 32.929688 84.414062 32.402344 C 84.011719 31.335938 83.542969 30.304688 83.011719 29.296875 L 82.203125 27.773438 C 82.0625 27.523438 81.941406 27.257812 81.78125 27.011719 L 81.3125 26.296875 L 80.367188 24.847656 C 80.070312 24.351562 79.738281 23.878906 79.375 23.429688 C 78.65625 22.535156 77.976562 21.601562 77.226562 20.746094 L 74.890625 18.273438 L 72.410156 16.078125 C 70.78125 14.742188 69.066406 13.535156 67.257812 12.460938 L 65.984375 11.6875 C 65.558594 11.429688 65.136719 11.261719 64.710938 11.035156 L 62.230469 9.84375 L 59.859375 8.945312 L 58.761719 8.519531 C 58.402344 8.398438 58.042969 8.316406 57.699219 8.21875 L 55.765625 7.6875 L 54.917969 7.453125 C 54.636719 7.394531 54.371094 7.355469 54.117188 7.308594 Z M 50.898438 6.769531 " fill-opacity="1" fill-rule="nonzero"/><g clip-path="url(#6cebd87599)"><path fill="#548b6d" d="M 83.292969 51.5 L 87.523438 60.769531 L 96.792969 56.539062 L 94.648438 62.269531 L 85.386719 66.496094 L 81.15625 57.230469 Z M 83.292969 51.5 " fill-opacity="1" fill-rule="nonzero"/></g><g fill="#172735" fill-opacity="1"><g transform="translate(18.650528, 63.230622)"><g><path d="M 9.433594 0 C 10.027344 0 10.320312 -0.296875 10.320312 -0.910156 L 10.320312 -11.683594 L 17.230469 -11.683594 L 22.644531 -0.796875 C 22.9375 -0.183594 23.1875 0 23.710938 0 L 29.578125 0 C 30.007812 0 30.234375 -0.296875 30.234375 -0.660156 C 30.234375 -0.773438 30.214844 -0.863281 30.167969 -0.976562 L 23.960938 -13.253906 C 27.28125 -15.207031 29.710938 -18.734375 29.710938 -22.664062 C 29.710938 -28.597656 25.050781 -33.738281 19.003906 -33.738281 L 4.570312 -33.738281 C 4 -33.738281 3.683594 -33.371094 3.683594 -32.851562 L 3.683594 -0.910156 C 3.683594 -0.296875 3.976562 0 4.570312 0 Z M 10.320312 -17.710938 L 10.320312 -27.871094 L 17.414062 -27.871094 C 20.371094 -27.871094 22.914062 -25.847656 22.914062 -22.777344 C 22.914062 -19.6875 20.371094 -17.710938 17.414062 -17.710938 Z M 10.320312 -17.710938 "/></g></g></g><g fill="#172735" fill-opacity="1"><g transform="translate(48.383433, 63.230622)"><g><path d="M 19.664062 0 C 20.324219 0 20.734375 -0.433594 20.734375 -1.046875 L 20.734375 -4.273438 C 20.734375 -4.980469 20.300781 -5.410156 19.664062 -5.410156 L 9.730469 -5.410156 L 9.730469 -8.707031 L 17.1875 -8.707031 C 17.824219 -8.707031 18.230469 -9.140625 18.230469 -9.777344 L 18.230469 -12.527344 C 18.230469 -13.230469 17.824219 -13.640625 17.1875 -13.640625 L 9.730469 -13.640625 L 9.730469 -17.027344 L 19.164062 -17.027344 C 19.800781 -17.027344 20.234375 -17.414062 20.234375 -18.117188 L 20.234375 -21.234375 C 20.234375 -21.871094 19.800781 -22.300781 19.164062 -22.300781 L 4.660156 -22.300781 C 3.957031 -22.300781 3.613281 -21.9375 3.613281 -21.234375 L 3.613281 -1.046875 C 3.613281 -0.410156 3.933594 -0.0234375 4.5 0 Z M 19.664062 0 "/></g></g></g><g fill="#172735" fill-opacity="1"><g transform="translate(70.119832, 63.230622)"><g/></g></g><g fill="#172735" fill-opacity="1"><g transform="translate(83.576855, 63.230622)"><g/></g></g><g fill="#172735" fill-opacity="1"><g transform="translate(97.03774, 63.230622)"><g><path d="M 18.960938 0.0234375 C 19.484375 0.0234375 19.871094 -0.25 20.121094 -0.820312 L 32.667969 -32.738281 C 32.738281 -32.871094 32.757812 -33.007812 32.757812 -33.167969 C 32.757812 -33.554688 32.488281 -33.757812 32.054688 -33.757812 L 26.804688 -33.757812 C 26.257812 -33.757812 25.894531 -33.464844 25.6875 -32.871094 L 17.027344 -9.320312 L 8.320312 -32.894531 C 8.117188 -33.464844 7.730469 -33.757812 7.207031 -33.757812 L 2.023438 -33.757812 C 1.570312 -33.757812 1.320312 -33.578125 1.320312 -33.214844 C 1.320312 -33.054688 1.339844 -32.917969 1.410156 -32.78125 L 13.980469 -0.820312 C 14.1875 -0.25 14.570312 0.0234375 15.140625 0.0234375 Z M 18.960938 0.0234375 "/></g></g></g><g fill="#172735" fill-opacity="1"><g transform="translate(128.907426, 63.230622)"><g><path d="M 19.664062 0 C 20.324219 0 20.734375 -0.433594 20.734375 -1.046875 L 20.734375 -4.273438 C 20.734375 -4.980469 20.300781 -5.410156 19.664062 -5.410156 L 9.730469 -5.410156 L 9.730469 -8.707031 L 17.1875 -8.707031 C 17.824219 -8.707031 18.230469 -9.140625 18.230469 -9.777344 L 18.230469 -12.527344 C 18.230469 -13.230469 17.824219 -13.640625 17.1875 -13.640625 L 9.730469 -13.640625 L 9.730469 -17.027344 L 19.164062 -17.027344 C 19.800781 -17.027344 20.234375 -17.414062 20.234375 -18.117188 L 20.234375 -21.234375 C 20.234375 -21.871094 19.800781 -22.300781 19.164062 -22.300781 L 4.660156 -22.300781 C 3.957031 -22.300781 3.613281 -21.9375 3.613281 -21.234375 L 3.613281 -1.046875 C 3.613281 -0.410156 3.933594 -0.0234375 4.5 0 Z M 19.664062 0 "/></g></g></g><g fill="#172735" fill-opacity="1"><g transform="translate(150.638784, 63.230622)"><g><path d="M 8.753906 0 C 9.480469 0 9.84375 -0.339844 9.84375 -1.046875 L 9.84375 -12.890625 L 18.867188 -0.523438 C 19.140625 -0.183594 19.4375 0 19.734375 0 L 24.644531 0 C 25.394531 0 25.78125 -0.339844 25.78125 -1.046875 L 25.78125 -21.234375 C 25.78125 -21.871094 25.210938 -22.300781 24.644531 -22.300781 L 20.597656 -22.300781 C 20.003906 -22.300781 19.664062 -22.007812 19.574219 -21.390625 L 19.574219 -9.683594 L 10.777344 -21.777344 C 10.527344 -22.121094 10.183594 -22.300781 9.777344 -22.300781 L 4.683594 -22.300781 C 4.046875 -22.300781 3.636719 -21.824219 3.636719 -21.1875 L 3.636719 -1.046875 C 3.636719 -0.339844 3.976562 0 4.683594 0 Z M 8.753906 0 "/></g></g></g><g fill="#172735" fill-opacity="1"><g transform="translate(179.053252, 63.230622)"><g><path d="M 13.164062 0 C 19.324219 0 23.734375 -5.25 23.734375 -11.207031 C 23.734375 -17.347656 19.234375 -22.210938 13.027344 -22.347656 L 4.660156 -22.347656 C 3.957031 -22.347656 3.59375 -21.984375 3.59375 -21.277344 L 3.59375 -1.046875 C 3.59375 -0.410156 3.886719 -0.0234375 4.5 0 Z M 9.777344 -5.273438 L 9.777344 -17.164062 L 12.027344 -17.164062 C 15.414062 -17.164062 17.730469 -14.617188 17.730469 -11.277344 C 17.730469 -7.933594 15.6875 -5.273438 12.183594 -5.273438 Z M 9.777344 -5.273438 "/></g></g></g><g fill="#172735" fill-opacity="1"><g transform="translate(202.330358, 63.230622)"><g><path d="M 19.664062 0 C 20.324219 0 20.734375 -0.433594 20.734375 -1.046875 L 20.734375 -4.273438 C 20.734375 -4.980469 20.300781 -5.410156 19.664062 -5.410156 L 9.730469 -5.410156 L 9.730469 -8.707031 L 17.1875 -8.707031 C 17.824219 -8.707031 18.230469 -9.140625 18.230469 -9.777344 L 18.230469 -12.527344 C 18.230469 -13.230469 17.824219 -13.640625 17.1875 -13.640625 L 9.730469 -13.640625 L 9.730469 -17.027344 L 19.164062 -17.027344 C 19.800781 -17.027344 20.234375 -17.414062 20.234375 -18.117188 L 20.234375 -21.234375 C 20.234375 -21.871094 19.800781 -22.300781 19.164062 -22.300781 L 4.660156 -22.300781 C 3.957031 -22.300781 3.613281 -21.9375 3.613281 -21.234375 L 3.613281 -1.046875 C 3.613281 -0.410156 3.933594 -0.0234375 4.5 0 Z M 19.664062 0 "/></g></g></g></svg>